<svg xmlns="http://www.w3.org/2000/svg" xmlns:xlink="http://www.w3.org/1999/xlink" width="99" zoomAndPan="magnify" viewBox="0 0 74.25 48" height="64" preserveAspectRatio="xMidYMid meet" version="1.0"><defs><clipPath id="e4b81ceab6"><path d="M 5.09375 11 L 56 11 L 56 36 L 5.09375 36 Z M 5.09375 11 " clip-rule="nonzero"/></clipPath><clipPath id="6913b6d8bc"><path d="M 40 6.25 L 58 6.25 L 58 40.78125 L 40 40.78125 Z M 40 6.25 " clip-rule="nonzero"/></clipPath><clipPath id="4845d9a322"><path d="M 50 6.25 L 67.542969 6.25 L 67.542969 40.78125 L 50 40.78125 Z M 50 6.25 " clip-rule="nonzero"/></clipPath></defs><g clip-path="url(#e4b81ceab6)"><path fill="#db4646" d="M 48.617188 12 C 47.121094 12.273438 45.707031 12.601562 44.386719 12.96875 C 36.25 15.21875 31.542969 18.816406 31.46875 18.871094 C 28.355469 19.921875 25.519531 20.269531 19.230469 21.167969 C 9.222656 22.597656 7.316406 24.027344 6.363281 27.839844 C 6.363281 27.839844 5.101562 29.101562 5.144531 32.652344 C 5.164062 34.214844 6.445312 35.464844 8.003906 35.464844 L 15.859375 35.464844 C 15.507812 34.613281 15.332031 33.726562 15.335938 32.804688 C 15.335938 28.960938 18.449219 25.847656 22.292969 25.847656 C 26.136719 25.847656 29.25 28.960938 29.25 32.804688 C 29.253906 33.726562 29.078125 34.613281 28.726562 35.464844 L 48.734375 35.464844 L 53.308594 20.171875 L 50.574219 20.308594 L 46.066406 20.53125 L 44.839844 20.589844 L 43.171875 20.671875 L 40.84375 20.785156 L 35.085938 21.070312 C 34.441406 21.101562 34.148438 20.273438 34.671875 19.890625 C 37.707031 17.667969 41.058594 16.121094 44.527344 15.0625 C 45.429688 14.785156 46.335938 14.542969 47.25 14.332031 C 47.492188 14.277344 47.730469 14.222656 47.96875 14.171875 C 48.351562 14.085938 48.734375 14.011719 49.121094 13.9375 C 51.144531 13.550781 53.179688 13.300781 55.183594 13.144531 L 55.417969 13.128906 L 55.988281 11.222656 C 53.511719 11.296875 51.054688 11.558594 48.617188 12 Z M 15.703125 24.425781 C 15.410156 25.34375 14.082031 27.929688 8.355469 28.015625 C 8.273438 28.015625 8.207031 27.988281 8.152344 27.925781 C 8.101562 27.863281 8.078125 27.792969 8.089844 27.710938 C 8.183594 27.113281 8.535156 25.773438 9.871094 24.871094 C 11.34375 23.878906 14.472656 24.011719 15.46875 24.085938 C 15.554688 24.089844 15.621094 24.128906 15.667969 24.199219 C 15.71875 24.269531 15.726562 24.347656 15.703125 24.425781 Z M 15.703125 24.425781 " fill-opacity="1" fill-rule="nonzero"/></g><path fill="#d4d3d6" d="M 28.101562 32.804688 C 28.101562 33.1875 28.066406 33.566406 27.992188 33.9375 C 27.917969 34.3125 27.808594 34.675781 27.660156 35.027344 C 27.515625 35.382812 27.335938 35.714844 27.125 36.03125 C 26.914062 36.351562 26.671875 36.644531 26.402344 36.914062 C 26.132812 37.183594 25.839844 37.425781 25.519531 37.636719 C 25.203125 37.847656 24.867188 38.027344 24.515625 38.171875 C 24.164062 38.320312 23.800781 38.429688 23.425781 38.503906 C 23.050781 38.578125 22.675781 38.613281 22.292969 38.613281 C 21.910156 38.613281 21.535156 38.578125 21.160156 38.503906 C 20.785156 38.429688 20.421875 38.320312 20.070312 38.171875 C 19.71875 38.027344 19.382812 37.847656 19.066406 37.636719 C 18.75 37.425781 18.453125 37.183594 18.183594 36.914062 C 17.914062 36.644531 17.675781 36.351562 17.460938 36.03125 C 17.25 35.714844 17.070312 35.382812 16.925781 35.027344 C 16.78125 34.675781 16.667969 34.3125 16.59375 33.9375 C 16.519531 33.566406 16.484375 33.1875 16.484375 32.804688 C 16.484375 32.421875 16.519531 32.046875 16.59375 31.671875 C 16.667969 31.296875 16.78125 30.933594 16.925781 30.582031 C 17.070312 30.230469 17.25 29.894531 17.460938 29.578125 C 17.675781 29.261719 17.914062 28.964844 18.183594 28.695312 C 18.453125 28.425781 18.75 28.1875 19.066406 27.972656 C 19.382812 27.761719 19.71875 27.582031 20.070312 27.4375 C 20.421875 27.292969 20.785156 27.179688 21.160156 27.105469 C 21.535156 27.03125 21.910156 26.996094 22.292969 26.996094 C 22.675781 26.996094 23.050781 27.03125 23.425781 27.105469 C 23.800781 27.179688 24.164062 27.292969 24.515625 27.4375 C 24.867188 27.582031 25.203125 27.761719 25.519531 27.972656 C 25.839844 28.1875 26.132812 28.425781 26.402344 28.695312 C 26.671875 28.964844 26.914062 29.261719 27.125 29.578125 C 27.335938 29.894531 27.515625 30.230469 27.660156 30.582031 C 27.808594 30.933594 27.917969 31.296875 27.992188 31.671875 C 28.066406 32.046875 28.101562 32.421875 28.101562 32.804688 Z M 28.101562 32.804688 " fill-opacity="1" fill-rule="nonzero"/><g clip-path="url(#6913b6d8bc)"><path fill="#d4d3d6" d="M 57.566406 6.253906 L 55.929688 11.726562 L 55.375 13.582031 L 53.324219 20.433594 L 48.871094 35.308594 L 47.242188 40.757812 L 40.296875 40.757812 L 41.929688 35.308594 L 46.277344 20.78125 L 48.125 14.59375 L 48.757812 12.484375 L 50.625 6.253906 Z M 57.566406 6.253906 " fill-opacity="1" fill-rule="nonzero"/></g><g clip-path="url(#4845d9a322)"><path fill="#db4646" d="M 67.269531 6.253906 L 65.484375 12.214844 L 64.976562 13.90625 L 63.183594 19.902344 L 58.574219 35.308594 L 56.941406 40.757812 L 50 40.757812 L 51.628906 35.308594 L 56.546875 18.875 L 58.179688 13.421875 L 58.679688 11.746094 L 60.324219 6.253906 Z M 67.269531 6.253906 " fill-opacity="1" fill-rule="nonzero"/></g></svg>