<svg xmlns="http://www.w3.org/2000/svg" xmlns:xlink="http://www.w3.org/1999/xlink" width="99" zoomAndPan="magnify" viewBox="0 0 74.25 48" height="64" preserveAspectRatio="xMidYMid meet" version="1.0"><defs><g/></defs><g fill="#db4646" fill-opacity="1"><g transform="translate(0.390306, 26.852914)"><g><path d="M 4.265625 0 L 2.78125 -2.703125 L 2.375 -2.703125 L 2.375 0 L 0.625 0 L 0.625 -7.140625 L 3.546875 -7.140625 C 4.109375 -7.140625 4.585938 -7.039062 4.984375 -6.84375 C 5.378906 -6.644531 5.675781 -6.375 5.875 -6.03125 C 6.070312 -5.6875 6.171875 -5.304688 6.171875 -4.890625 C 6.171875 -4.421875 6.035156 -4 5.765625 -3.625 C 5.503906 -3.25 5.113281 -2.984375 4.59375 -2.828125 L 6.234375 0 Z M 2.375 -3.921875 L 3.453125 -3.921875 C 3.765625 -3.921875 4 -4 4.15625 -4.15625 C 4.320312 -4.3125 4.40625 -4.535156 4.40625 -4.828125 C 4.40625 -5.097656 4.320312 -5.3125 4.15625 -5.46875 C 4 -5.625 3.765625 -5.703125 3.453125 -5.703125 L 2.375 -5.703125 Z M 2.375 -3.921875 "/></g></g></g><g fill="#db4646" fill-opacity="1"><g transform="translate(7.01584, 26.852914)"><g><path d="M 5.984375 -2.921875 C 5.984375 -2.765625 5.972656 -2.597656 5.953125 -2.421875 L 2.015625 -2.421875 C 2.046875 -2.066406 2.160156 -1.796875 2.359375 -1.609375 C 2.554688 -1.421875 2.800781 -1.328125 3.09375 -1.328125 C 3.53125 -1.328125 3.832031 -1.507812 4 -1.875 L 5.84375 -1.875 C 5.75 -1.507812 5.578125 -1.175781 5.328125 -0.875 C 5.085938 -0.570312 4.78125 -0.335938 4.40625 -0.171875 C 4.03125 -0.00390625 3.613281 0.078125 3.15625 0.078125 C 2.59375 0.078125 2.09375 -0.0351562 1.65625 -0.265625 C 1.226562 -0.503906 0.890625 -0.84375 0.640625 -1.28125 C 0.398438 -1.726562 0.28125 -2.25 0.28125 -2.84375 C 0.28125 -3.425781 0.398438 -3.9375 0.640625 -4.375 C 0.878906 -4.820312 1.21875 -5.160156 1.65625 -5.390625 C 2.09375 -5.628906 2.59375 -5.75 3.15625 -5.75 C 3.707031 -5.75 4.195312 -5.632812 4.625 -5.40625 C 5.050781 -5.175781 5.382812 -4.847656 5.625 -4.421875 C 5.863281 -3.992188 5.984375 -3.492188 5.984375 -2.921875 Z M 4.203125 -3.390625 C 4.203125 -3.679688 4.097656 -3.914062 3.890625 -4.09375 C 3.691406 -4.269531 3.441406 -4.359375 3.140625 -4.359375 C 2.847656 -4.359375 2.597656 -4.273438 2.390625 -4.109375 C 2.191406 -3.941406 2.070312 -3.703125 2.03125 -3.390625 Z M 4.203125 -3.390625 "/></g></g></g><g fill="#db4646" fill-opacity="1"><g transform="translate(13.275545, 26.852914)"><g><path d="M 4.09375 -5.734375 C 4.757812 -5.734375 5.289062 -5.515625 5.6875 -5.078125 C 6.082031 -4.648438 6.28125 -4.0625 6.28125 -3.3125 L 6.28125 0 L 4.546875 0 L 4.546875 -3.078125 C 4.546875 -3.460938 4.445312 -3.757812 4.25 -3.96875 C 4.050781 -4.175781 3.785156 -4.28125 3.453125 -4.28125 C 3.117188 -4.28125 2.851562 -4.175781 2.65625 -3.96875 C 2.46875 -3.757812 2.375 -3.460938 2.375 -3.078125 L 2.375 0 L 0.625 0 L 0.625 -5.671875 L 2.375 -5.671875 L 2.375 -4.921875 C 2.550781 -5.171875 2.785156 -5.367188 3.078125 -5.515625 C 3.378906 -5.660156 3.71875 -5.734375 4.09375 -5.734375 Z M 4.09375 -5.734375 "/></g></g></g><g fill="#db4646" fill-opacity="1"><g transform="translate(20.124638, 26.852914)"><g><path d="M 3.796875 -1.46875 L 3.796875 0 L 2.90625 0 C 2.28125 0 1.789062 -0.148438 1.4375 -0.453125 C 1.082031 -0.765625 0.90625 -1.269531 0.90625 -1.96875 L 0.90625 -4.234375 L 0.21875 -4.234375 L 0.21875 -5.671875 L 0.90625 -5.671875 L 0.90625 -7.0625 L 2.640625 -7.0625 L 2.640625 -5.671875 L 3.78125 -5.671875 L 3.78125 -4.234375 L 2.640625 -4.234375 L 2.640625 -1.953125 C 2.640625 -1.785156 2.679688 -1.660156 2.765625 -1.578125 C 2.847656 -1.503906 2.984375 -1.46875 3.171875 -1.46875 Z M 3.796875 -1.46875 "/></g></g></g><g fill="#db4646" fill-opacity="1"><g transform="translate(24.250352, 26.852914)"><g><path d="M 5.078125 -1.265625 L 2.40625 -1.265625 L 1.984375 0 L 0.15625 0 L 2.75 -7.140625 L 4.765625 -7.140625 L 7.34375 0 L 5.5 0 Z M 4.625 -2.609375 L 3.75 -5.21875 L 2.875 -2.609375 Z M 4.625 -2.609375 "/></g></g></g><g fill="#db4646" fill-opacity="1"><g transform="translate(31.73964, 26.852914)"><g><path d="M 4.09375 -5.734375 C 4.757812 -5.734375 5.289062 -5.515625 5.6875 -5.078125 C 6.082031 -4.648438 6.28125 -4.0625 6.28125 -3.3125 L 6.28125 0 L 4.546875 0 L 4.546875 -3.078125 C 4.546875 -3.460938 4.445312 -3.757812 4.25 -3.96875 C 4.050781 -4.175781 3.785156 -4.28125 3.453125 -4.28125 C 3.117188 -4.28125 2.851562 -4.175781 2.65625 -3.96875 C 2.46875 -3.757812 2.375 -3.460938 2.375 -3.078125 L 2.375 0 L 0.625 0 L 0.625 -5.671875 L 2.375 -5.671875 L 2.375 -4.921875 C 2.550781 -5.171875 2.785156 -5.367188 3.078125 -5.515625 C 3.378906 -5.660156 3.71875 -5.734375 4.09375 -5.734375 Z M 4.09375 -5.734375 "/></g></g></g><g fill="#db4646" fill-opacity="1"><g transform="translate(38.588734, 26.852914)"><g><path d="M 0.28125 -2.84375 C 0.28125 -3.425781 0.390625 -3.9375 0.609375 -4.375 C 0.835938 -4.820312 1.140625 -5.160156 1.515625 -5.390625 C 1.890625 -5.628906 2.3125 -5.75 2.78125 -5.75 C 3.15625 -5.75 3.492188 -5.671875 3.796875 -5.515625 C 4.109375 -5.367188 4.351562 -5.160156 4.53125 -4.890625 L 4.53125 -7.53125 L 6.28125 -7.53125 L 6.28125 0 L 4.53125 0 L 4.53125 -0.8125 C 4.375 -0.539062 4.144531 -0.320312 3.84375 -0.15625 C 3.539062 0 3.1875 0.078125 2.78125 0.078125 C 2.3125 0.078125 1.890625 -0.0390625 1.515625 -0.28125 C 1.140625 -0.519531 0.835938 -0.859375 0.609375 -1.296875 C 0.390625 -1.742188 0.28125 -2.257812 0.28125 -2.84375 Z M 4.53125 -2.84375 C 4.53125 -3.269531 4.410156 -3.609375 4.171875 -3.859375 C 3.929688 -4.109375 3.640625 -4.234375 3.296875 -4.234375 C 2.953125 -4.234375 2.660156 -4.109375 2.421875 -3.859375 C 2.179688 -3.617188 2.0625 -3.28125 2.0625 -2.84375 C 2.0625 -2.414062 2.179688 -2.070312 2.421875 -1.8125 C 2.660156 -1.5625 2.953125 -1.4375 3.296875 -1.4375 C 3.640625 -1.4375 3.929688 -1.5625 4.171875 -1.8125 C 4.410156 -2.0625 4.53125 -2.40625 4.53125 -2.84375 Z M 4.53125 -2.84375 "/></g></g></g><g fill="#db4646" fill-opacity="1"><g transform="translate(45.488637, 26.852914)"><g><path d="M 3.3125 -7.140625 C 4.0625 -7.140625 4.71875 -6.988281 5.28125 -6.6875 C 5.84375 -6.394531 6.273438 -5.976562 6.578125 -5.4375 C 6.890625 -4.894531 7.046875 -4.273438 7.046875 -3.578125 C 7.046875 -2.867188 6.890625 -2.242188 6.578125 -1.703125 C 6.273438 -1.160156 5.835938 -0.738281 5.265625 -0.4375 C 4.703125 -0.144531 4.050781 0 3.3125 0 L 0.625 0 L 0.625 -7.140625 Z M 3.1875 -1.5 C 3.851562 -1.5 4.367188 -1.675781 4.734375 -2.03125 C 5.097656 -2.394531 5.28125 -2.910156 5.28125 -3.578125 C 5.28125 -4.234375 5.097656 -4.742188 4.734375 -5.109375 C 4.367188 -5.472656 3.851562 -5.65625 3.1875 -5.65625 L 2.375 -5.65625 L 2.375 -1.5 Z M 3.1875 -1.5 "/></g></g></g><g fill="#db4646" fill-opacity="1"><g transform="translate(52.87631, 26.852914)"><g><path d="M 2.375 -4.734375 C 2.570312 -5.046875 2.820312 -5.289062 3.125 -5.46875 C 3.4375 -5.644531 3.78125 -5.734375 4.15625 -5.734375 L 4.15625 -3.890625 L 3.671875 -3.890625 C 3.234375 -3.890625 2.90625 -3.796875 2.6875 -3.609375 C 2.476562 -3.429688 2.375 -3.109375 2.375 -2.640625 L 2.375 0 L 0.625 0 L 0.625 -5.671875 L 2.375 -5.671875 Z M 2.375 -4.734375 "/></g></g></g><g fill="#db4646" fill-opacity="1"><g transform="translate(57.225587, 26.852914)"><g><path d="M 1.5 -6.265625 C 1.195312 -6.265625 0.945312 -6.351562 0.75 -6.53125 C 0.5625 -6.71875 0.46875 -6.941406 0.46875 -7.203125 C 0.46875 -7.472656 0.5625 -7.695312 0.75 -7.875 C 0.945312 -8.050781 1.195312 -8.140625 1.5 -8.140625 C 1.800781 -8.140625 2.046875 -8.050781 2.234375 -7.875 C 2.429688 -7.695312 2.53125 -7.472656 2.53125 -7.203125 C 2.53125 -6.941406 2.429688 -6.71875 2.234375 -6.53125 C 2.046875 -6.351562 1.800781 -6.265625 1.5 -6.265625 Z M 2.375 -5.671875 L 2.375 0 L 0.625 0 L 0.625 -5.671875 Z M 2.375 -5.671875 "/></g></g></g><g fill="#db4646" fill-opacity="1"><g transform="translate(60.223337, 26.852914)"><g><path d="M 3.1875 -1.625 L 4.421875 -5.671875 L 6.265625 -5.671875 L 4.25 0 L 2.109375 0 L 0.09375 -5.671875 L 1.953125 -5.671875 Z M 3.1875 -1.625 "/></g></g></g><g fill="#db4646" fill-opacity="1"><g transform="translate(66.584662, 26.852914)"><g><path d="M 5.984375 -2.921875 C 5.984375 -2.765625 5.972656 -2.597656 5.953125 -2.421875 L 2.015625 -2.421875 C 2.046875 -2.066406 2.160156 -1.796875 2.359375 -1.609375 C 2.554688 -1.421875 2.800781 -1.328125 3.09375 -1.328125 C 3.53125 -1.328125 3.832031 -1.507812 4 -1.875 L 5.84375 -1.875 C 5.75 -1.507812 5.578125 -1.175781 5.328125 -0.875 C 5.085938 -0.570312 4.78125 -0.335938 4.40625 -0.171875 C 4.03125 -0.00390625 3.613281 0.078125 3.15625 0.078125 C 2.59375 0.078125 2.09375 -0.0351562 1.65625 -0.265625 C 1.226562 -0.503906 0.890625 -0.84375 0.640625 -1.28125 C 0.398438 -1.726562 0.28125 -2.25 0.28125 -2.84375 C 0.28125 -3.425781 0.398438 -3.9375 0.640625 -4.375 C 0.878906 -4.820312 1.21875 -5.160156 1.65625 -5.390625 C 2.09375 -5.628906 2.59375 -5.75 3.15625 -5.75 C 3.707031 -5.75 4.195312 -5.632812 4.625 -5.40625 C 5.050781 -5.175781 5.382812 -4.847656 5.625 -4.421875 C 5.863281 -3.992188 5.984375 -3.492188 5.984375 -2.921875 Z M 4.203125 -3.390625 C 4.203125 -3.679688 4.097656 -3.914062 3.890625 -4.09375 C 3.691406 -4.269531 3.441406 -4.359375 3.140625 -4.359375 C 2.847656 -4.359375 2.597656 -4.273438 2.390625 -4.109375 C 2.191406 -3.941406 2.070312 -3.703125 2.03125 -3.390625 Z M 4.203125 -3.390625 "/></g></g></g><g fill="#db4646" fill-opacity="1"><g transform="translate(5.092346, 31.450546)"><g><path d="M 1.53125 -1.625 L 0.96875 -0.53125 L 0.96875 0 L 0.578125 0 L 0.578125 -0.53125 L 0.015625 -1.625 L 0.46875 -1.625 L 0.78125 -0.9375 L 1.09375 -1.625 Z M 1.53125 -1.625 "/></g></g></g><g fill="#db4646" fill-opacity="1"><g transform="translate(7.619796, 31.450546)"><g><path d="M 0.90625 0.015625 C 0.757812 0.015625 0.617188 -0.0195312 0.484375 -0.09375 C 0.359375 -0.164062 0.257812 -0.265625 0.1875 -0.390625 C 0.113281 -0.515625 0.078125 -0.65625 0.078125 -0.8125 C 0.078125 -0.96875 0.113281 -1.109375 0.1875 -1.234375 C 0.257812 -1.367188 0.359375 -1.46875 0.484375 -1.53125 C 0.617188 -1.601562 0.757812 -1.640625 0.90625 -1.640625 C 1.0625 -1.640625 1.203125 -1.601562 1.328125 -1.53125 C 1.453125 -1.46875 1.550781 -1.367188 1.625 -1.234375 C 1.695312 -1.109375 1.734375 -0.96875 1.734375 -0.8125 C 1.734375 -0.65625 1.695312 -0.515625 1.625 -0.390625 C 1.550781 -0.265625 1.453125 -0.164062 1.328125 -0.09375 C 1.203125 -0.0195312 1.0625 0.015625 0.90625 0.015625 Z M 0.90625 -0.34375 C 1.039062 -0.34375 1.144531 -0.382812 1.21875 -0.46875 C 1.300781 -0.5625 1.34375 -0.675781 1.34375 -0.8125 C 1.34375 -0.957031 1.300781 -1.070312 1.21875 -1.15625 C 1.144531 -1.238281 1.039062 -1.28125 0.90625 -1.28125 C 0.78125 -1.28125 0.675781 -1.238281 0.59375 -1.15625 C 0.519531 -1.070312 0.484375 -0.957031 0.484375 -0.8125 C 0.484375 -0.664062 0.519531 -0.550781 0.59375 -0.46875 C 0.675781 -0.382812 0.78125 -0.34375 0.90625 -0.34375 Z M 0.90625 -0.34375 "/></g></g></g><g fill="#db4646" fill-opacity="1"><g transform="translate(10.412685, 31.450546)"><g><path d="M 0.53125 -1.625 L 0.53125 -0.65625 C 0.53125 -0.550781 0.550781 -0.472656 0.59375 -0.421875 C 0.644531 -0.367188 0.71875 -0.34375 0.8125 -0.34375 C 0.90625 -0.34375 0.972656 -0.367188 1.015625 -0.421875 C 1.066406 -0.472656 1.09375 -0.550781 1.09375 -0.65625 L 1.09375 -1.625 L 1.5 -1.625 L 1.5 -0.65625 C 1.5 -0.507812 1.46875 -0.382812 1.40625 -0.28125 C 1.34375 -0.1875 1.257812 -0.113281 1.15625 -0.0625 C 1.050781 -0.0078125 0.9375 0.015625 0.8125 0.015625 C 0.675781 0.015625 0.554688 -0.0078125 0.453125 -0.0625 C 0.359375 -0.113281 0.28125 -0.1875 0.21875 -0.28125 C 0.164062 -0.382812 0.140625 -0.507812 0.140625 -0.65625 L 0.140625 -1.625 Z M 0.53125 -1.625 "/></g></g></g><g fill="#db4646" fill-opacity="1"><g transform="translate(13.018611, 31.450546)"><g><path d="M 0.96875 0 L 0.640625 -0.609375 L 0.53125 -0.609375 L 0.53125 0 L 0.140625 0 L 0.140625 -1.625 L 0.8125 -1.625 C 0.9375 -1.625 1.039062 -1.597656 1.125 -1.546875 C 1.21875 -1.503906 1.285156 -1.441406 1.328125 -1.359375 C 1.378906 -1.285156 1.40625 -1.203125 1.40625 -1.109375 C 1.40625 -1.003906 1.375 -0.910156 1.3125 -0.828125 C 1.25 -0.742188 1.160156 -0.679688 1.046875 -0.640625 L 1.421875 0 Z M 0.53125 -0.890625 L 0.78125 -0.890625 C 0.851562 -0.890625 0.90625 -0.90625 0.9375 -0.9375 C 0.976562 -0.976562 1 -1.03125 1 -1.09375 C 1 -1.15625 0.976562 -1.203125 0.9375 -1.234375 C 0.90625 -1.273438 0.851562 -1.296875 0.78125 -1.296875 L 0.53125 -1.296875 Z M 0.53125 -0.890625 "/></g></g></g><g fill="#db4646" fill-opacity="1"><g transform="translate(15.502202, 31.450546)"><g/></g></g><g fill="#db4646" fill-opacity="1"><g transform="translate(16.970198, 31.450546)"><g><path d="M 0.53125 -1.625 L 0.53125 -0.65625 C 0.53125 -0.550781 0.550781 -0.472656 0.59375 -0.421875 C 0.644531 -0.367188 0.71875 -0.34375 0.8125 -0.34375 C 0.90625 -0.34375 0.972656 -0.367188 1.015625 -0.421875 C 1.066406 -0.472656 1.09375 -0.550781 1.09375 -0.65625 L 1.09375 -1.625 L 1.5 -1.625 L 1.5 -0.65625 C 1.5 -0.507812 1.46875 -0.382812 1.40625 -0.28125 C 1.34375 -0.1875 1.257812 -0.113281 1.15625 -0.0625 C 1.050781 -0.0078125 0.9375 0.015625 0.8125 0.015625 C 0.675781 0.015625 0.554688 -0.0078125 0.453125 -0.0625 C 0.359375 -0.113281 0.28125 -0.1875 0.21875 -0.28125 C 0.164062 -0.382812 0.140625 -0.507812 0.140625 -0.65625 L 0.140625 -1.625 Z M 0.53125 -1.625 "/></g></g></g><g fill="#db4646" fill-opacity="1"><g transform="translate(19.576123, 31.450546)"><g><path d="M 0.53125 -0.3125 L 1.0625 -0.3125 L 1.0625 0 L 0.140625 0 L 0.140625 -1.625 L 0.53125 -1.625 Z M 0.53125 -0.3125 "/></g></g></g><g fill="#db4646" fill-opacity="1"><g transform="translate(21.655786, 31.450546)"><g><path d="M 1.3125 -1.625 L 1.3125 -1.3125 L 0.875 -1.3125 L 0.875 0 L 0.484375 0 L 0.484375 -1.3125 L 0.0625 -1.3125 L 0.0625 -1.625 Z M 1.3125 -1.625 "/></g></g></g><g fill="#db4646" fill-opacity="1"><g transform="translate(23.998581, 31.450546)"><g><path d="M 0.53125 -1.625 L 0.53125 0 L 0.140625 0 L 0.140625 -1.625 Z M 0.53125 -1.625 "/></g></g></g><g fill="#db4646" fill-opacity="1"><g transform="translate(25.658153, 31.450546)"><g><path d="M 1.984375 -1.625 L 1.984375 0 L 1.59375 0 L 1.59375 -0.96875 L 1.21875 0 L 0.90625 0 L 0.53125 -0.96875 L 0.53125 0 L 0.140625 0 L 0.140625 -1.625 L 0.609375 -1.625 L 1.0625 -0.5 L 1.515625 -1.625 Z M 1.984375 -1.625 "/></g></g></g><g fill="#db4646" fill-opacity="1"><g transform="translate(28.755722, 31.450546)"><g><path d="M 1.15625 -0.28125 L 0.546875 -0.28125 L 0.453125 0 L 0.03125 0 L 0.625 -1.625 L 1.078125 -1.625 L 1.671875 0 L 1.25 0 Z M 1.046875 -0.59375 L 0.84375 -1.1875 L 0.65625 -0.59375 Z M 1.046875 -0.59375 "/></g></g></g><g fill="#db4646" fill-opacity="1"><g transform="translate(31.435509, 31.450546)"><g><path d="M 1.3125 -1.625 L 1.3125 -1.3125 L 0.875 -1.3125 L 0.875 0 L 0.484375 0 L 0.484375 -1.3125 L 0.0625 -1.3125 L 0.0625 -1.625 Z M 1.3125 -1.625 "/></g></g></g><g fill="#db4646" fill-opacity="1"><g transform="translate(33.778304, 31.450546)"><g><path d="M 0.53125 -1.3125 L 0.53125 -0.984375 L 1.0625 -0.984375 L 1.0625 -0.671875 L 0.53125 -0.671875 L 0.53125 -0.3125 L 1.140625 -0.3125 L 1.140625 0 L 0.140625 0 L 0.140625 -1.625 L 1.140625 -1.625 L 1.140625 -1.3125 Z M 0.53125 -1.3125 "/></g></g></g><g fill="#db4646" fill-opacity="1"><g transform="translate(36.005689, 31.450546)"><g/></g></g><g fill="#db4646" fill-opacity="1"><g transform="translate(37.473684, 31.450546)"><g><path d="M 0.96875 0 L 0.640625 -0.609375 L 0.53125 -0.609375 L 0.53125 0 L 0.140625 0 L 0.140625 -1.625 L 0.8125 -1.625 C 0.9375 -1.625 1.039062 -1.597656 1.125 -1.546875 C 1.21875 -1.503906 1.285156 -1.441406 1.328125 -1.359375 C 1.378906 -1.285156 1.40625 -1.203125 1.40625 -1.109375 C 1.40625 -1.003906 1.375 -0.910156 1.3125 -0.828125 C 1.25 -0.742188 1.160156 -0.679688 1.046875 -0.640625 L 1.421875 0 Z M 0.53125 -0.890625 L 0.78125 -0.890625 C 0.851562 -0.890625 0.90625 -0.90625 0.9375 -0.9375 C 0.976562 -0.976562 1 -1.03125 1 -1.09375 C 1 -1.15625 0.976562 -1.203125 0.9375 -1.234375 C 0.90625 -1.273438 0.851562 -1.296875 0.78125 -1.296875 L 0.53125 -1.296875 Z M 0.53125 -0.890625 "/></g></g></g><g fill="#db4646" fill-opacity="1"><g transform="translate(39.957276, 31.450546)"><g><path d="M 0.53125 -1.625 L 0.53125 0 L 0.140625 0 L 0.140625 -1.625 Z M 0.53125 -1.625 "/></g></g></g><g fill="#db4646" fill-opacity="1"><g transform="translate(41.616848, 31.450546)"><g><path d="M 0.75 -1.625 C 0.925781 -1.625 1.078125 -1.585938 1.203125 -1.515625 C 1.328125 -1.453125 1.425781 -1.359375 1.5 -1.234375 C 1.570312 -1.109375 1.609375 -0.96875 1.609375 -0.8125 C 1.609375 -0.65625 1.570312 -0.515625 1.5 -0.390625 C 1.425781 -0.265625 1.320312 -0.164062 1.1875 -0.09375 C 1.0625 -0.03125 0.914062 0 0.75 0 L 0.140625 0 L 0.140625 -1.625 Z M 0.71875 -0.34375 C 0.875 -0.34375 0.992188 -0.382812 1.078125 -0.46875 C 1.160156 -0.550781 1.203125 -0.664062 1.203125 -0.8125 C 1.203125 -0.957031 1.160156 -1.070312 1.078125 -1.15625 C 0.992188 -1.238281 0.875 -1.28125 0.71875 -1.28125 L 0.53125 -1.28125 L 0.53125 -0.34375 Z M 0.71875 -0.34375 "/></g></g></g><g fill="#db4646" fill-opacity="1"><g transform="translate(44.273554, 31.450546)"><g><path d="M 0.53125 -1.3125 L 0.53125 -0.984375 L 1.0625 -0.984375 L 1.0625 -0.671875 L 0.53125 -0.671875 L 0.53125 -0.3125 L 1.140625 -0.3125 L 1.140625 0 L 0.140625 0 L 0.140625 -1.625 L 1.140625 -1.625 L 1.140625 -1.3125 Z M 0.53125 -1.3125 "/></g></g></g><g fill="#db4646" fill-opacity="1"><g transform="translate(46.50094, 31.450546)"><g/></g></g><g fill="#db4646" fill-opacity="1"><g transform="translate(47.968935, 31.450546)"><g><path d="M 0.53125 -1.3125 L 0.53125 -0.984375 L 1.0625 -0.984375 L 1.0625 -0.671875 L 0.53125 -0.671875 L 0.53125 -0.3125 L 1.140625 -0.3125 L 1.140625 0 L 0.140625 0 L 0.140625 -1.625 L 1.140625 -1.625 L 1.140625 -1.3125 Z M 0.53125 -1.3125 "/></g></g></g><g fill="#db4646" fill-opacity="1"><g transform="translate(50.19632, 31.450546)"><g><path d="M 1.140625 0 L 0.8125 -0.5 L 0.515625 0 L 0.0625 0 L 0.59375 -0.828125 L 0.0625 -1.625 L 0.515625 -1.625 L 0.84375 -1.140625 L 1.125 -1.625 L 1.578125 -1.625 L 1.0625 -0.8125 L 1.59375 0 Z M 1.140625 0 "/></g></g></g><g fill="#db4646" fill-opacity="1"><g transform="translate(52.825329, 31.450546)"><g><path d="M 1.375 -1.09375 C 1.375 -1 1.351562 -0.910156 1.3125 -0.828125 C 1.269531 -0.753906 1.203125 -0.691406 1.109375 -0.640625 C 1.023438 -0.597656 0.914062 -0.578125 0.78125 -0.578125 L 0.53125 -0.578125 L 0.53125 0 L 0.140625 0 L 0.140625 -1.625 L 0.78125 -1.625 C 0.914062 -1.625 1.023438 -1.597656 1.109375 -1.546875 C 1.203125 -1.503906 1.269531 -1.441406 1.3125 -1.359375 C 1.351562 -1.285156 1.375 -1.195312 1.375 -1.09375 Z M 0.75 -0.890625 C 0.820312 -0.890625 0.878906 -0.90625 0.921875 -0.9375 C 0.960938 -0.976562 0.984375 -1.03125 0.984375 -1.09375 C 0.984375 -1.164062 0.960938 -1.21875 0.921875 -1.25 C 0.878906 -1.28125 0.820312 -1.296875 0.75 -1.296875 L 0.53125 -1.296875 L 0.53125 -0.890625 Z M 0.75 -0.890625 "/></g></g></g><g fill="#db4646" fill-opacity="1"><g transform="translate(55.244292, 31.450546)"><g><path d="M 0.53125 -1.3125 L 0.53125 -0.984375 L 1.0625 -0.984375 L 1.0625 -0.671875 L 0.53125 -0.671875 L 0.53125 -0.3125 L 1.140625 -0.3125 L 1.140625 0 L 0.140625 0 L 0.140625 -1.625 L 1.140625 -1.625 L 1.140625 -1.3125 Z M 0.53125 -1.3125 "/></g></g></g><g fill="#db4646" fill-opacity="1"><g transform="translate(57.471678, 31.450546)"><g><path d="M 0.96875 0 L 0.640625 -0.609375 L 0.53125 -0.609375 L 0.53125 0 L 0.140625 0 L 0.140625 -1.625 L 0.8125 -1.625 C 0.9375 -1.625 1.039062 -1.597656 1.125 -1.546875 C 1.21875 -1.503906 1.285156 -1.441406 1.328125 -1.359375 C 1.378906 -1.285156 1.40625 -1.203125 1.40625 -1.109375 C 1.40625 -1.003906 1.375 -0.910156 1.3125 -0.828125 C 1.25 -0.742188 1.160156 -0.679688 1.046875 -0.640625 L 1.421875 0 Z M 0.53125 -0.890625 L 0.78125 -0.890625 C 0.851562 -0.890625 0.90625 -0.90625 0.9375 -0.9375 C 0.976562 -0.976562 1 -1.03125 1 -1.09375 C 1 -1.15625 0.976562 -1.203125 0.9375 -1.234375 C 0.90625 -1.273438 0.851562 -1.296875 0.78125 -1.296875 L 0.53125 -1.296875 Z M 0.53125 -0.890625 "/></g></g></g><g fill="#db4646" fill-opacity="1"><g transform="translate(59.95527, 31.450546)"><g><path d="M 0.53125 -1.625 L 0.53125 0 L 0.140625 0 L 0.140625 -1.625 Z M 0.53125 -1.625 "/></g></g></g><g fill="#db4646" fill-opacity="1"><g transform="translate(61.614842, 31.450546)"><g><path d="M 0.53125 -1.3125 L 0.53125 -0.984375 L 1.0625 -0.984375 L 1.0625 -0.671875 L 0.53125 -0.671875 L 0.53125 -0.3125 L 1.140625 -0.3125 L 1.140625 0 L 0.140625 0 L 0.140625 -1.625 L 1.140625 -1.625 L 1.140625 -1.3125 Z M 0.53125 -1.3125 "/></g></g></g><g fill="#db4646" fill-opacity="1"><g transform="translate(63.842228, 31.450546)"><g><path d="M 1.59375 0 L 1.203125 0 L 0.53125 -1 L 0.53125 0 L 0.140625 0 L 0.140625 -1.625 L 0.53125 -1.625 L 1.203125 -0.625 L 1.203125 -1.625 L 1.59375 -1.625 Z M 1.59375 0 "/></g></g></g><g fill="#db4646" fill-opacity="1"><g transform="translate(66.556638, 31.450546)"><g><path d="M 0.078125 -0.8125 C 0.078125 -0.96875 0.109375 -1.109375 0.171875 -1.234375 C 0.242188 -1.367188 0.34375 -1.46875 0.46875 -1.53125 C 0.59375 -1.601562 0.734375 -1.640625 0.890625 -1.640625 C 1.085938 -1.640625 1.253906 -1.585938 1.390625 -1.484375 C 1.523438 -1.390625 1.613281 -1.253906 1.65625 -1.078125 L 1.234375 -1.078125 C 1.191406 -1.140625 1.140625 -1.1875 1.078125 -1.21875 C 1.023438 -1.257812 0.960938 -1.28125 0.890625 -1.28125 C 0.765625 -1.28125 0.664062 -1.238281 0.59375 -1.15625 C 0.519531 -1.070312 0.484375 -0.957031 0.484375 -0.8125 C 0.484375 -0.664062 0.519531 -0.550781 0.59375 -0.46875 C 0.664062 -0.382812 0.765625 -0.34375 0.890625 -0.34375 C 0.960938 -0.34375 1.023438 -0.359375 1.078125 -0.390625 C 1.140625 -0.429688 1.191406 -0.488281 1.234375 -0.5625 L 1.65625 -0.5625 C 1.613281 -0.382812 1.523438 -0.242188 1.390625 -0.140625 C 1.253906 -0.0351562 1.085938 0.015625 0.890625 0.015625 C 0.734375 0.015625 0.59375 -0.0195312 0.46875 -0.09375 C 0.34375 -0.164062 0.242188 -0.265625 0.171875 -0.390625 C 0.109375 -0.515625 0.078125 -0.65625 0.078125 -0.8125 Z M 0.078125 -0.8125 "/></g></g></g><g fill="#db4646" fill-opacity="1"><g transform="translate(69.294129, 31.450546)"><g><path d="M 0.53125 -1.3125 L 0.53125 -0.984375 L 1.0625 -0.984375 L 1.0625 -0.671875 L 0.53125 -0.671875 L 0.53125 -0.3125 L 1.140625 -0.3125 L 1.140625 0 L 0.140625 0 L 0.140625 -1.625 L 1.140625 -1.625 L 1.140625 -1.3125 Z M 0.53125 -1.3125 "/></g></g></g></svg>