<svg xmlns="http://www.w3.org/2000/svg" xmlns:xlink="http://www.w3.org/1999/xlink" width="1920" zoomAndPan="magnify" viewBox="0 0 1440 809.999993" height="1080" preserveAspectRatio="xMidYMid meet" version="1.0"><defs><g/><clipPath id="9cf136958d"><path d="M 249 247.222656 L 372 247.222656 L 372 491.722656 L 249 491.722656 Z M 249 247.222656 " clip-rule="nonzero"/></clipPath><clipPath id="59df4a6c52"><path d="M 318 247.222656 L 441 247.222656 L 441 491.722656 L 318 491.722656 Z M 318 247.222656 " clip-rule="nonzero"/></clipPath></defs><g fill="#a60c0c" fill-opacity="1"><g transform="translate(440.786048, 376.037926)"><g><path d="M 45.96875 0 L 29.984375 -29 L 25.5 -29 L 25.5 0 L 6.78125 0 L 6.78125 -76.84375 L 38.203125 -76.84375 C 44.253906 -76.84375 49.414062 -75.78125 53.6875 -73.65625 C 57.957031 -71.539062 61.148438 -68.640625 63.265625 -64.953125 C 65.378906 -61.273438 66.4375 -57.171875 66.4375 -52.640625 C 66.4375 -47.535156 64.992188 -42.976562 62.109375 -38.96875 C 59.234375 -34.957031 54.984375 -32.109375 49.359375 -30.421875 L 67.09375 0 Z M 25.5 -42.25 L 37.109375 -42.25 C 40.535156 -42.25 43.101562 -43.085938 44.8125 -44.765625 C 46.53125 -46.441406 47.390625 -48.8125 47.390625 -51.875 C 47.390625 -54.800781 46.53125 -57.101562 44.8125 -58.78125 C 43.101562 -60.457031 40.535156 -61.296875 37.109375 -61.296875 L 25.5 -61.296875 Z M 25.5 -42.25 "/></g></g></g><g fill="#a60c0c" fill-opacity="1"><g transform="translate(512.126708, 376.037926)"><g><path d="M 64.359375 -31.515625 C 64.359375 -29.765625 64.25 -27.941406 64.03125 -26.046875 L 21.671875 -26.046875 C 21.960938 -22.253906 23.179688 -19.351562 25.328125 -17.34375 C 27.484375 -15.34375 30.132812 -14.34375 33.28125 -14.34375 C 37.945312 -14.34375 41.191406 -16.3125 43.015625 -20.25 L 62.9375 -20.25 C 61.914062 -16.238281 60.070312 -12.625 57.40625 -9.40625 C 54.738281 -6.195312 51.398438 -3.679688 47.390625 -1.859375 C 43.378906 -0.0351562 38.894531 0.875 33.9375 0.875 C 27.945312 0.875 22.617188 -0.398438 17.953125 -2.953125 C 13.285156 -5.503906 9.632812 -9.148438 7 -13.890625 C 4.375 -18.640625 3.0625 -24.1875 3.0625 -30.53125 C 3.0625 -36.882812 4.351562 -42.429688 6.9375 -47.171875 C 9.53125 -51.910156 13.160156 -55.554688 17.828125 -58.109375 C 22.503906 -60.671875 27.875 -61.953125 33.9375 -61.953125 C 39.84375 -61.953125 45.09375 -60.707031 49.6875 -58.21875 C 54.289062 -55.738281 57.882812 -52.203125 60.46875 -47.609375 C 63.0625 -43.015625 64.359375 -37.648438 64.359375 -31.515625 Z M 45.203125 -36.453125 C 45.203125 -39.660156 44.109375 -42.210938 41.921875 -44.109375 C 39.734375 -46.003906 37 -46.953125 33.71875 -46.953125 C 30.570312 -46.953125 27.921875 -46.039062 25.765625 -44.21875 C 23.617188 -42.394531 22.289062 -39.804688 21.78125 -36.453125 Z M 45.203125 -36.453125 "/></g></g></g><g fill="#a60c0c" fill-opacity="1"><g transform="translate(579.528294, 376.037926)"><g><path d="M 44 -61.734375 C 51.15625 -61.734375 56.863281 -59.414062 61.125 -54.78125 C 65.394531 -50.144531 67.53125 -43.78125 67.53125 -35.6875 L 67.53125 0 L 48.921875 0 L 48.921875 -33.171875 C 48.921875 -37.253906 47.863281 -40.425781 45.75 -42.6875 C 43.632812 -44.945312 40.789062 -46.078125 37.21875 -46.078125 C 33.632812 -46.078125 30.785156 -44.945312 28.671875 -42.6875 C 26.554688 -40.425781 25.5 -37.253906 25.5 -33.171875 L 25.5 0 L 6.78125 0 L 6.78125 -61.078125 L 25.5 -61.078125 L 25.5 -52.96875 C 27.394531 -55.675781 29.945312 -57.8125 33.15625 -59.375 C 36.375 -60.945312 39.988281 -61.734375 44 -61.734375 Z M 44 -61.734375 "/></g></g></g><g fill="#a60c0c" fill-opacity="1"><g transform="translate(653.276144, 376.037926)"><g><path d="M 40.828125 -15.875 L 40.828125 0 L 31.296875 0 C 24.515625 0 19.222656 -1.65625 15.421875 -4.96875 C 11.628906 -8.289062 9.734375 -13.710938 9.734375 -21.234375 L 9.734375 -45.53125 L 2.296875 -45.53125 L 2.296875 -61.078125 L 9.734375 -61.078125 L 9.734375 -75.953125 L 28.453125 -75.953125 L 28.453125 -61.078125 L 40.71875 -61.078125 L 40.71875 -45.53125 L 28.453125 -45.53125 L 28.453125 -21.015625 C 28.453125 -19.191406 28.890625 -17.878906 29.765625 -17.078125 C 30.640625 -16.273438 32.101562 -15.875 34.15625 -15.875 Z M 40.828125 -15.875 "/></g></g></g><g fill="#a60c0c" fill-opacity="1"><g transform="translate(697.699905, 376.037926)"><g><path d="M 54.609375 -13.578125 L 25.9375 -13.578125 L 21.34375 0 L 1.75 0 L 29.546875 -76.84375 L 51.21875 -76.84375 L 79.03125 0 L 59.21875 0 Z M 49.796875 -28.015625 L 40.28125 -56.15625 L 30.859375 -28.015625 Z M 49.796875 -28.015625 "/></g></g></g><g fill="#a60c0c" fill-opacity="1"><g transform="translate(778.341071, 376.037926)"><g><path d="M 44 -61.734375 C 51.15625 -61.734375 56.863281 -59.414062 61.125 -54.78125 C 65.394531 -50.144531 67.53125 -43.78125 67.53125 -35.6875 L 67.53125 0 L 48.921875 0 L 48.921875 -33.171875 C 48.921875 -37.253906 47.863281 -40.425781 45.75 -42.6875 C 43.632812 -44.945312 40.789062 -46.078125 37.21875 -46.078125 C 33.632812 -46.078125 30.785156 -44.945312 28.671875 -42.6875 C 26.554688 -40.425781 25.5 -37.253906 25.5 -33.171875 L 25.5 0 L 6.78125 0 L 6.78125 -61.078125 L 25.5 -61.078125 L 25.5 -52.96875 C 27.394531 -55.675781 29.945312 -57.8125 33.15625 -59.375 C 36.375 -60.945312 39.988281 -61.734375 44 -61.734375 Z M 44 -61.734375 "/></g></g></g><g fill="#a60c0c" fill-opacity="1"><g transform="translate(852.088921, 376.037926)"><g><path d="M 3.0625 -30.640625 C 3.0625 -36.921875 4.242188 -42.429688 6.609375 -47.171875 C 8.984375 -51.910156 12.210938 -55.554688 16.296875 -58.109375 C 20.390625 -60.671875 24.953125 -61.953125 29.984375 -61.953125 C 34.003906 -61.953125 37.671875 -61.113281 40.984375 -59.4375 C 44.304688 -57.757812 46.914062 -55.492188 48.8125 -52.640625 L 48.8125 -81 L 67.53125 -81 L 67.53125 0 L 48.8125 0 L 48.8125 -8.75 C 47.0625 -5.832031 44.5625 -3.5 41.3125 -1.75 C 38.070312 0 34.296875 0.875 29.984375 0.875 C 24.953125 0.875 20.390625 -0.414062 16.296875 -3 C 12.210938 -5.59375 8.984375 -9.28125 6.609375 -14.0625 C 4.242188 -18.84375 3.0625 -24.367188 3.0625 -30.640625 Z M 48.8125 -30.53125 C 48.8125 -35.207031 47.515625 -38.894531 44.921875 -41.59375 C 42.335938 -44.289062 39.1875 -45.640625 35.46875 -45.640625 C 31.738281 -45.640625 28.578125 -44.304688 25.984375 -41.640625 C 23.398438 -38.984375 22.109375 -35.316406 22.109375 -30.640625 C 22.109375 -25.972656 23.398438 -22.269531 25.984375 -19.53125 C 28.578125 -16.800781 31.738281 -15.4375 35.46875 -15.4375 C 39.1875 -15.4375 42.335938 -16.785156 44.921875 -19.484375 C 47.515625 -22.179688 48.8125 -25.863281 48.8125 -30.53125 Z M 48.8125 -30.53125 "/></g></g></g><g fill="#a60c0c" fill-opacity="1"><g transform="translate(926.383866, 376.037926)"><g><path d="M 35.578125 -76.84375 C 43.671875 -76.84375 50.742188 -75.234375 56.796875 -72.015625 C 62.859375 -68.804688 67.546875 -64.300781 70.859375 -58.5 C 74.179688 -52.695312 75.84375 -46.003906 75.84375 -38.421875 C 75.84375 -30.898438 74.179688 -24.21875 70.859375 -18.375 C 67.546875 -12.539062 62.84375 -8.019531 56.75 -4.8125 C 50.65625 -1.601562 43.597656 0 35.578125 0 L 6.78125 0 L 6.78125 -76.84375 Z M 34.375 -16.203125 C 41.445312 -16.203125 46.953125 -18.132812 50.890625 -22 C 54.835938 -25.863281 56.8125 -31.335938 56.8125 -38.421875 C 56.8125 -45.492188 54.835938 -51 50.890625 -54.9375 C 46.953125 -58.882812 41.445312 -60.859375 34.375 -60.859375 L 25.5 -60.859375 L 25.5 -16.203125 Z M 34.375 -16.203125 "/></g></g></g><g fill="#a60c0c" fill-opacity="1"><g transform="translate(1005.930882, 376.037926)"><g><path d="M 25.5 -50.890625 C 27.6875 -54.253906 30.421875 -56.898438 33.703125 -58.828125 C 36.992188 -60.765625 40.644531 -61.734375 44.65625 -61.734375 L 44.65625 -41.921875 L 39.515625 -41.921875 C 34.835938 -41.921875 31.332031 -40.914062 29 -38.90625 C 26.664062 -36.90625 25.5 -33.382812 25.5 -28.34375 L 25.5 0 L 6.78125 0 L 6.78125 -61.078125 L 25.5 -61.078125 Z M 25.5 -50.890625 "/></g></g></g><g fill="#a60c0c" fill-opacity="1"><g transform="translate(1052.761875, 376.037926)"><g><path d="M 16.203125 -67.421875 C 12.921875 -67.421875 10.238281 -68.382812 8.15625 -70.3125 C 6.070312 -72.25 5.03125 -74.644531 5.03125 -77.5 C 5.03125 -80.414062 6.070312 -82.835938 8.15625 -84.765625 C 10.238281 -86.703125 12.921875 -87.671875 16.203125 -87.671875 C 19.410156 -87.671875 22.050781 -86.703125 24.125 -84.765625 C 26.207031 -82.835938 27.25 -80.414062 27.25 -77.5 C 27.25 -74.644531 26.207031 -72.25 24.125 -70.3125 C 22.050781 -68.382812 19.410156 -67.421875 16.203125 -67.421875 Z M 25.5 -61.078125 L 25.5 0 L 6.78125 0 L 6.78125 -61.078125 Z M 25.5 -61.078125 "/></g></g></g><g fill="#a60c0c" fill-opacity="1"><g transform="translate(1085.040248, 376.037926)"><g><path d="M 34.265625 -17.515625 L 47.5 -61.078125 L 67.421875 -61.078125 L 45.75 0 L 22.65625 0 L 0.984375 -61.078125 L 21.015625 -61.078125 Z M 34.265625 -17.515625 "/></g></g></g><g fill="#a60c0c" fill-opacity="1"><g transform="translate(1153.536027, 376.037926)"><g><path d="M 64.359375 -31.515625 C 64.359375 -29.765625 64.25 -27.941406 64.03125 -26.046875 L 21.671875 -26.046875 C 21.960938 -22.253906 23.179688 -19.351562 25.328125 -17.34375 C 27.484375 -15.34375 30.132812 -14.34375 33.28125 -14.34375 C 37.945312 -14.34375 41.191406 -16.3125 43.015625 -20.25 L 62.9375 -20.25 C 61.914062 -16.238281 60.070312 -12.625 57.40625 -9.40625 C 54.738281 -6.195312 51.398438 -3.679688 47.390625 -1.859375 C 43.378906 -0.0351562 38.894531 0.875 33.9375 0.875 C 27.945312 0.875 22.617188 -0.398438 17.953125 -2.953125 C 13.285156 -5.503906 9.632812 -9.148438 7 -13.890625 C 4.375 -18.640625 3.0625 -24.1875 3.0625 -30.53125 C 3.0625 -36.882812 4.351562 -42.429688 6.9375 -47.171875 C 9.53125 -51.910156 13.160156 -55.554688 17.828125 -58.109375 C 22.503906 -60.671875 27.875 -61.953125 33.9375 -61.953125 C 39.84375 -61.953125 45.09375 -60.707031 49.6875 -58.21875 C 54.289062 -55.738281 57.882812 -52.203125 60.46875 -47.609375 C 63.0625 -43.015625 64.359375 -37.648438 64.359375 -31.515625 Z M 45.203125 -36.453125 C 45.203125 -39.660156 44.109375 -42.210938 41.921875 -44.109375 C 39.734375 -46.003906 37 -46.953125 33.71875 -46.953125 C 30.570312 -46.953125 27.921875 -46.039062 25.765625 -44.21875 C 23.617188 -42.394531 22.289062 -39.804688 21.78125 -36.453125 Z M 45.203125 -36.453125 "/></g></g></g><g fill="#a60c0c" fill-opacity="1"><g transform="translate(440.786048, 433.480304)"><g><path d="M 22.828125 -24.125 L 14.46875 -7.96875 L 14.46875 0 L 8.59375 0 L 8.59375 -7.96875 L 0.234375 -24.125 L 6.90625 -24.125 L 11.578125 -14.03125 L 16.21875 -24.125 Z M 22.828125 -24.125 "/></g></g></g><g fill="#a60c0c" fill-opacity="1"><g transform="translate(478.429973, 433.480304)"><g><path d="M 13.546875 0.234375 C 11.273438 0.234375 9.191406 -0.289062 7.296875 -1.34375 C 5.410156 -2.394531 3.910156 -3.863281 2.796875 -5.75 C 1.691406 -7.644531 1.140625 -9.773438 1.140625 -12.140625 C 1.140625 -14.492188 1.691406 -16.609375 2.796875 -18.484375 C 3.910156 -20.367188 5.410156 -21.835938 7.296875 -22.890625 C 9.191406 -23.941406 11.273438 -24.46875 13.546875 -24.46875 C 15.816406 -24.46875 17.894531 -23.941406 19.78125 -22.890625 C 21.675781 -21.835938 23.164062 -20.367188 24.25 -18.484375 C 25.34375 -16.609375 25.890625 -14.492188 25.890625 -12.140625 C 25.890625 -9.773438 25.335938 -7.644531 24.234375 -5.75 C 23.128906 -3.863281 21.640625 -2.394531 19.765625 -1.34375 C 17.890625 -0.289062 15.816406 0.234375 13.546875 0.234375 Z M 13.546875 -5.125 C 15.472656 -5.125 17.015625 -5.765625 18.171875 -7.046875 C 19.328125 -8.328125 19.90625 -10.023438 19.90625 -12.140625 C 19.90625 -14.265625 19.328125 -15.960938 18.171875 -17.234375 C 17.015625 -18.503906 15.472656 -19.140625 13.546875 -19.140625 C 11.597656 -19.140625 10.046875 -18.507812 8.890625 -17.25 C 7.734375 -15.988281 7.15625 -14.285156 7.15625 -12.140625 C 7.15625 -10.003906 7.734375 -8.300781 8.890625 -7.03125 C 10.046875 -5.757812 11.597656 -5.125 13.546875 -5.125 Z M 13.546875 -5.125 "/></g></g></g><g fill="#a60c0c" fill-opacity="1"><g transform="translate(520.027364, 433.480304)"><g><path d="M 7.90625 -24.125 L 7.90625 -9.6875 C 7.90625 -8.25 8.257812 -7.140625 8.96875 -6.359375 C 9.675781 -5.578125 10.71875 -5.1875 12.09375 -5.1875 C 13.46875 -5.1875 14.519531 -5.578125 15.25 -6.359375 C 15.988281 -7.140625 16.359375 -8.25 16.359375 -9.6875 L 16.359375 -24.125 L 22.234375 -24.125 L 22.234375 -9.734375 C 22.234375 -7.578125 21.773438 -5.753906 20.859375 -4.265625 C 19.941406 -2.773438 18.707031 -1.648438 17.15625 -0.890625 C 15.613281 -0.140625 13.894531 0.234375 12 0.234375 C 10.09375 0.234375 8.390625 -0.132812 6.890625 -0.875 C 5.390625 -1.625 4.203125 -2.75 3.328125 -4.25 C 2.460938 -5.75 2.03125 -7.578125 2.03125 -9.734375 L 2.03125 -24.125 Z M 7.90625 -24.125 "/></g></g></g><g fill="#a60c0c" fill-opacity="1"><g transform="translate(558.840111, 433.480304)"><g><path d="M 14.4375 0 L 9.421875 -9.109375 L 8.015625 -9.109375 L 8.015625 0 L 2.125 0 L 2.125 -24.125 L 12 -24.125 C 13.894531 -24.125 15.515625 -23.789062 16.859375 -23.125 C 18.203125 -22.46875 19.203125 -21.5625 19.859375 -20.40625 C 20.523438 -19.25 20.859375 -17.957031 20.859375 -16.53125 C 20.859375 -14.925781 20.40625 -13.492188 19.5 -12.234375 C 18.601562 -10.972656 17.269531 -10.082031 15.5 -9.5625 L 21.078125 0 Z M 8.015625 -13.265625 L 11.65625 -13.265625 C 12.726562 -13.265625 13.535156 -13.523438 14.078125 -14.046875 C 14.617188 -14.578125 14.890625 -15.328125 14.890625 -16.296875 C 14.890625 -17.210938 14.617188 -17.929688 14.078125 -18.453125 C 13.535156 -18.984375 12.726562 -19.25 11.65625 -19.25 L 8.015625 -19.25 Z M 8.015625 -13.265625 "/></g></g></g><g fill="#a60c0c" fill-opacity="1"><g transform="translate(595.830816, 433.480304)"><g/></g></g><g fill="#a60c0c" fill-opacity="1"><g transform="translate(617.695195, 433.480304)"><g><path d="M 7.90625 -24.125 L 7.90625 -9.6875 C 7.90625 -8.25 8.257812 -7.140625 8.96875 -6.359375 C 9.675781 -5.578125 10.71875 -5.1875 12.09375 -5.1875 C 13.46875 -5.1875 14.519531 -5.578125 15.25 -6.359375 C 15.988281 -7.140625 16.359375 -8.25 16.359375 -9.6875 L 16.359375 -24.125 L 22.234375 -24.125 L 22.234375 -9.734375 C 22.234375 -7.578125 21.773438 -5.753906 20.859375 -4.265625 C 19.941406 -2.773438 18.707031 -1.648438 17.15625 -0.890625 C 15.613281 -0.140625 13.894531 0.234375 12 0.234375 C 10.09375 0.234375 8.390625 -0.132812 6.890625 -0.875 C 5.390625 -1.625 4.203125 -2.75 3.328125 -4.25 C 2.460938 -5.75 2.03125 -7.578125 2.03125 -9.734375 L 2.03125 -24.125 Z M 7.90625 -24.125 "/></g></g></g><g fill="#a60c0c" fill-opacity="1"><g transform="translate(656.507942, 433.480304)"><g><path d="M 8.015625 -4.53125 L 15.703125 -4.53125 L 15.703125 0 L 2.125 0 L 2.125 -24.125 L 8.015625 -24.125 Z M 8.015625 -4.53125 "/></g></g></g><g fill="#a60c0c" fill-opacity="1"><g transform="translate(687.482506, 433.480304)"><g><path d="M 19.484375 -24.125 L 19.484375 -19.421875 L 13.09375 -19.421875 L 13.09375 0 L 7.21875 0 L 7.21875 -19.421875 L 0.828125 -19.421875 L 0.828125 -24.125 Z M 19.484375 -24.125 "/></g></g></g><g fill="#a60c0c" fill-opacity="1"><g transform="translate(722.376178, 433.480304)"><g><path d="M 8.015625 -24.125 L 8.015625 0 L 2.125 0 L 2.125 -24.125 Z M 8.015625 -24.125 "/></g></g></g><g fill="#a60c0c" fill-opacity="1"><g transform="translate(747.093913, 433.480304)"><g><path d="M 29.453125 -24.125 L 29.453125 0 L 23.578125 0 L 23.578125 -14.46875 L 18.1875 0 L 13.4375 0 L 8.015625 -14.5 L 8.015625 0 L 2.125 0 L 2.125 -24.125 L 9.078125 -24.125 L 15.84375 -7.421875 L 22.546875 -24.125 Z M 29.453125 -24.125 "/></g></g></g><g fill="#a60c0c" fill-opacity="1"><g transform="translate(793.229218, 433.480304)"><g><path d="M 17.15625 -4.265625 L 8.140625 -4.265625 L 6.703125 0 L 0.546875 0 L 9.28125 -24.125 L 16.09375 -24.125 L 24.8125 0 L 18.59375 0 Z M 15.640625 -8.796875 L 12.65625 -17.640625 L 9.6875 -8.796875 Z M 15.640625 -8.796875 "/></g></g></g><g fill="#a60c0c" fill-opacity="1"><g transform="translate(833.142053, 433.480304)"><g><path d="M 19.484375 -24.125 L 19.484375 -19.421875 L 13.09375 -19.421875 L 13.09375 0 L 7.21875 0 L 7.21875 -19.421875 L 0.828125 -19.421875 L 0.828125 -24.125 Z M 19.484375 -24.125 "/></g></g></g><g fill="#a60c0c" fill-opacity="1"><g transform="translate(868.035725, 433.480304)"><g><path d="M 8.015625 -19.421875 L 8.015625 -14.546875 L 15.875 -14.546875 L 15.875 -10 L 8.015625 -10 L 8.015625 -4.703125 L 16.90625 -4.703125 L 16.90625 0 L 2.125 0 L 2.125 -24.125 L 16.90625 -24.125 L 16.90625 -19.421875 Z M 8.015625 -19.421875 "/></g></g></g><g fill="#a60c0c" fill-opacity="1"><g transform="translate(901.210487, 433.480304)"><g/></g></g><g fill="#a60c0c" fill-opacity="1"><g transform="translate(923.074854, 433.480304)"><g><path d="M 14.4375 0 L 9.421875 -9.109375 L 8.015625 -9.109375 L 8.015625 0 L 2.125 0 L 2.125 -24.125 L 12 -24.125 C 13.894531 -24.125 15.515625 -23.789062 16.859375 -23.125 C 18.203125 -22.46875 19.203125 -21.5625 19.859375 -20.40625 C 20.523438 -19.25 20.859375 -17.957031 20.859375 -16.53125 C 20.859375 -14.925781 20.40625 -13.492188 19.5 -12.234375 C 18.601562 -10.972656 17.269531 -10.082031 15.5 -9.5625 L 21.078125 0 Z M 8.015625 -13.265625 L 11.65625 -13.265625 C 12.726562 -13.265625 13.535156 -13.523438 14.078125 -14.046875 C 14.617188 -14.578125 14.890625 -15.328125 14.890625 -16.296875 C 14.890625 -17.210938 14.617188 -17.929688 14.078125 -18.453125 C 13.535156 -18.984375 12.726562 -19.25 11.65625 -19.25 L 8.015625 -19.25 Z M 8.015625 -13.265625 "/></g></g></g><g fill="#a60c0c" fill-opacity="1"><g transform="translate(960.065559, 433.480304)"><g><path d="M 8.015625 -24.125 L 8.015625 0 L 2.125 0 L 2.125 -24.125 Z M 8.015625 -24.125 "/></g></g></g><g fill="#a60c0c" fill-opacity="1"><g transform="translate(984.783295, 433.480304)"><g><path d="M 11.171875 -24.125 C 13.710938 -24.125 15.929688 -23.617188 17.828125 -22.609375 C 19.734375 -21.609375 21.207031 -20.195312 22.25 -18.375 C 23.300781 -16.550781 23.828125 -14.445312 23.828125 -12.0625 C 23.828125 -9.707031 23.300781 -7.613281 22.25 -5.78125 C 21.207031 -3.945312 19.726562 -2.523438 17.8125 -1.515625 C 15.90625 -0.503906 13.691406 0 11.171875 0 L 2.125 0 L 2.125 -24.125 Z M 10.796875 -5.09375 C 13.015625 -5.09375 14.742188 -5.695312 15.984375 -6.90625 C 17.222656 -8.125 17.84375 -9.84375 17.84375 -12.0625 C 17.84375 -14.289062 17.222656 -16.019531 15.984375 -17.25 C 14.742188 -18.488281 13.015625 -19.109375 10.796875 -19.109375 L 8.015625 -19.109375 L 8.015625 -5.09375 Z M 10.796875 -5.09375 "/></g></g></g><g fill="#a60c0c" fill-opacity="1"><g transform="translate(1024.352365, 433.480304)"><g><path d="M 8.015625 -19.421875 L 8.015625 -14.546875 L 15.875 -14.546875 L 15.875 -10 L 8.015625 -10 L 8.015625 -4.703125 L 16.90625 -4.703125 L 16.90625 0 L 2.125 0 L 2.125 -24.125 L 16.90625 -24.125 L 16.90625 -19.421875 Z M 8.015625 -19.421875 "/></g></g></g><g fill="#a60c0c" fill-opacity="1"><g transform="translate(1057.527127, 433.480304)"><g/></g></g><g fill="#a60c0c" fill-opacity="1"><g transform="translate(1079.391494, 433.480304)"><g><path d="M 8.015625 -19.421875 L 8.015625 -14.546875 L 15.875 -14.546875 L 15.875 -10 L 8.015625 -10 L 8.015625 -4.703125 L 16.90625 -4.703125 L 16.90625 0 L 2.125 0 L 2.125 -24.125 L 16.90625 -24.125 L 16.90625 -19.421875 Z M 8.015625 -19.421875 "/></g></g></g><g fill="#a60c0c" fill-opacity="1"><g transform="translate(1112.566256, 433.480304)"><g><path d="M 16.90625 0 L 12 -7.390625 L 7.671875 0 L 1 0 L 8.734375 -12.265625 L 0.828125 -24.125 L 7.671875 -24.125 L 12.515625 -16.84375 L 16.78125 -24.125 L 23.4375 -24.125 L 15.78125 -11.96875 L 23.75 0 Z M 16.90625 0 "/></g></g></g><g fill="#a60c0c" fill-opacity="1"><g transform="translate(1151.722801, 433.480304)"><g><path d="M 20.515625 -16.359375 C 20.515625 -14.960938 20.191406 -13.6875 19.546875 -12.53125 C 18.910156 -11.375 17.925781 -10.4375 16.59375 -9.71875 C 15.269531 -9.007812 13.625 -8.65625 11.65625 -8.65625 L 8.015625 -8.65625 L 8.015625 0 L 2.125 0 L 2.125 -24.125 L 11.65625 -24.125 C 13.582031 -24.125 15.207031 -23.789062 16.53125 -23.125 C 17.863281 -22.46875 18.859375 -21.550781 19.515625 -20.375 C 20.179688 -19.207031 20.515625 -17.867188 20.515625 -16.359375 Z M 11.203125 -13.34375 C 12.328125 -13.34375 13.164062 -13.601562 13.71875 -14.125 C 14.269531 -14.65625 14.546875 -15.398438 14.546875 -16.359375 C 14.546875 -17.328125 14.269531 -18.070312 13.71875 -18.59375 C 13.164062 -19.125 12.328125 -19.390625 11.203125 -19.390625 L 8.015625 -19.390625 L 8.015625 -13.34375 Z M 11.203125 -13.34375 "/></g></g></g><g fill="#a60c0c" fill-opacity="1"><g transform="translate(1187.75093, 433.480304)"><g><path d="M 8.015625 -19.421875 L 8.015625 -14.546875 L 15.875 -14.546875 L 15.875 -10 L 8.015625 -10 L 8.015625 -4.703125 L 16.90625 -4.703125 L 16.90625 0 L 2.125 0 L 2.125 -24.125 L 16.90625 -24.125 L 16.90625 -19.421875 Z M 8.015625 -19.421875 "/></g></g></g><g fill="#a60c0c" fill-opacity="1"><g transform="translate(1220.925692, 433.480304)"><g><path d="M 14.4375 0 L 9.421875 -9.109375 L 8.015625 -9.109375 L 8.015625 0 L 2.125 0 L 2.125 -24.125 L 12 -24.125 C 13.894531 -24.125 15.515625 -23.789062 16.859375 -23.125 C 18.203125 -22.46875 19.203125 -21.5625 19.859375 -20.40625 C 20.523438 -19.25 20.859375 -17.957031 20.859375 -16.53125 C 20.859375 -14.925781 20.40625 -13.492188 19.5 -12.234375 C 18.601562 -10.972656 17.269531 -10.082031 15.5 -9.5625 L 21.078125 0 Z M 8.015625 -13.265625 L 11.65625 -13.265625 C 12.726562 -13.265625 13.535156 -13.523438 14.078125 -14.046875 C 14.617188 -14.578125 14.890625 -15.328125 14.890625 -16.296875 C 14.890625 -17.210938 14.617188 -17.929688 14.078125 -18.453125 C 13.535156 -18.984375 12.726562 -19.25 11.65625 -19.25 L 8.015625 -19.25 Z M 8.015625 -13.265625 "/></g></g></g><g fill="#a60c0c" fill-opacity="1"><g transform="translate(1257.916398, 433.480304)"><g><path d="M 8.015625 -24.125 L 8.015625 0 L 2.125 0 L 2.125 -24.125 Z M 8.015625 -24.125 "/></g></g></g><g fill="#a60c0c" fill-opacity="1"><g transform="translate(1282.634133, 433.480304)"><g><path d="M 8.015625 -19.421875 L 8.015625 -14.546875 L 15.875 -14.546875 L 15.875 -10 L 8.015625 -10 L 8.015625 -4.703125 L 16.90625 -4.703125 L 16.90625 0 L 2.125 0 L 2.125 -24.125 L 16.90625 -24.125 L 16.90625 -19.421875 Z M 8.015625 -19.421875 "/></g></g></g><g fill="#a60c0c" fill-opacity="1"><g transform="translate(1315.808895, 433.480304)"><g><path d="M 23.71875 0 L 17.84375 0 L 8.015625 -14.890625 L 8.015625 0 L 2.125 0 L 2.125 -24.125 L 8.015625 -24.125 L 17.84375 -9.171875 L 17.84375 -24.125 L 23.71875 -24.125 Z M 23.71875 0 "/></g></g></g><g fill="#a60c0c" fill-opacity="1"><g transform="translate(1356.23742, 433.480304)"><g><path d="M 1.140625 -12.09375 C 1.140625 -14.476562 1.65625 -16.601562 2.6875 -18.46875 C 3.71875 -20.34375 5.15625 -21.800781 7 -22.84375 C 8.84375 -23.882812 10.929688 -24.40625 13.265625 -24.40625 C 16.128906 -24.40625 18.582031 -23.648438 20.625 -22.140625 C 22.664062 -20.628906 24.03125 -18.566406 24.71875 -15.953125 L 18.25 -15.953125 C 17.769531 -16.960938 17.085938 -17.726562 16.203125 -18.25 C 15.328125 -18.78125 14.328125 -19.046875 13.203125 -19.046875 C 11.390625 -19.046875 9.921875 -18.414062 8.796875 -17.15625 C 7.671875 -15.894531 7.109375 -14.207031 7.109375 -12.09375 C 7.109375 -9.988281 7.671875 -8.304688 8.796875 -7.046875 C 9.921875 -5.785156 11.390625 -5.15625 13.203125 -5.15625 C 14.328125 -5.15625 15.328125 -5.414062 16.203125 -5.9375 C 17.085938 -6.46875 17.769531 -7.238281 18.25 -8.25 L 24.71875 -8.25 C 24.03125 -5.632812 22.664062 -3.578125 20.625 -2.078125 C 18.582031 -0.578125 16.128906 0.171875 13.265625 0.171875 C 10.929688 0.171875 8.84375 -0.347656 7 -1.390625 C 5.15625 -2.429688 3.71875 -3.878906 2.6875 -5.734375 C 1.65625 -7.597656 1.140625 -9.71875 1.140625 -12.09375 Z M 1.140625 -12.09375 "/></g></g></g><g fill="#a60c0c" fill-opacity="1"><g transform="translate(1397.00971, 433.480304)"><g><path d="M 8.015625 -19.421875 L 8.015625 -14.546875 L 15.875 -14.546875 L 15.875 -10 L 8.015625 -10 L 8.015625 -4.703125 L 16.90625 -4.703125 L 16.90625 0 L 2.125 0 L 2.125 -24.125 L 16.90625 -24.125 L 16.90625 -19.421875 Z M 8.015625 -19.421875 "/></g></g></g><path fill="#a60c0c" d="M 308.519531 287.976562 C 297.90625 289.914062 287.902344 292.25 278.535156 294.839844 C 220.855469 310.789062 187.492188 336.296875 186.964844 336.695312 C 164.886719 344.121094 144.789062 346.585938 100.207031 352.953125 C 29.257812 363.09375 15.738281 373.234375 8.980469 400.257812 C 8.980469 400.257812 0.0351562 409.207031 0.339844 434.371094 C 0.472656 445.445312 9.546875 454.316406 20.617188 454.316406 L 76.308594 454.316406 C 73.8125 448.28125 72.570312 442 72.578125 435.464844 C 72.578125 408.222656 94.664062 386.136719 121.90625 386.136719 C 149.152344 386.136719 171.238281 408.222656 171.238281 435.464844 C 171.246094 442 170.003906 448.28125 167.507812 454.316406 L 309.351562 454.316406 L 341.789062 345.914062 L 322.386719 346.863281 L 290.429688 348.449219 L 281.734375 348.875 L 269.910156 349.453125 L 253.417969 350.261719 L 212.597656 352.261719 C 208.015625 352.484375 205.960938 346.625 209.660156 343.914062 C 231.175781 328.152344 254.949219 317.191406 279.539062 309.679688 C 285.925781 307.730469 292.359375 306.003906 298.84375 304.5 C 300.535156 304.105469 302.230469 303.726562 303.921875 303.359375 C 306.644531 302.773438 309.367188 302.222656 312.089844 301.707031 C 326.449219 298.980469 340.871094 297.195312 355.074219 296.097656 L 356.738281 295.980469 L 360.789062 282.460938 C 343.226562 282.992188 325.804688 284.832031 308.519531 287.976562 Z M 75.1875 376.070312 C 73.121094 382.5625 63.691406 400.898438 23.113281 401.511719 C 22.839844 401.515625 22.574219 401.464844 22.324219 401.351562 C 22.070312 401.238281 21.855469 401.078125 21.671875 400.871094 C 21.492188 400.664062 21.363281 400.425781 21.285156 400.160156 C 21.207031 399.894531 21.1875 399.628906 21.230469 399.355469 C 21.882812 395.125 24.375 385.625 33.839844 379.230469 C 44.277344 372.179688 66.480469 373.125 73.535156 373.640625 C 73.820312 373.660156 74.089844 373.742188 74.335938 373.882812 C 74.585938 374.027344 74.789062 374.21875 74.953125 374.453125 C 75.113281 374.691406 75.214844 374.953125 75.253906 375.234375 C 75.296875 375.519531 75.273438 375.796875 75.1875 376.070312 Z M 75.1875 376.070312 " fill-opacity="1" fill-rule="nonzero"/><path fill="#d4d3d6" d="M 163.097656 435.464844 C 163.097656 436.8125 163.03125 438.160156 162.898438 439.5 C 162.765625 440.84375 162.570312 442.175781 162.304688 443.5 C 162.042969 444.824219 161.714844 446.128906 161.324219 447.421875 C 160.933594 448.710938 160.480469 449.980469 159.960938 451.226562 C 159.445312 452.472656 158.871094 453.691406 158.234375 454.878906 C 157.597656 456.070312 156.90625 457.226562 156.15625 458.347656 C 155.40625 459.46875 154.605469 460.550781 153.75 461.59375 C 152.894531 462.636719 151.988281 463.632812 151.035156 464.589844 C 150.082031 465.542969 149.082031 466.445312 148.039062 467.304688 C 146.996094 468.160156 145.914062 468.960938 144.792969 469.710938 C 143.671875 470.460938 142.515625 471.152344 141.324219 471.789062 C 140.136719 472.425781 138.917969 473 137.671875 473.515625 C 136.425781 474.03125 135.15625 474.488281 133.867188 474.878906 C 132.574219 475.269531 131.269531 475.597656 129.945312 475.859375 C 128.621094 476.125 127.289062 476.320312 125.945312 476.453125 C 124.605469 476.585938 123.257812 476.652344 121.910156 476.652344 C 120.5625 476.652344 119.214844 476.585938 117.871094 476.453125 C 116.53125 476.320312 115.199219 476.125 113.875 475.859375 C 112.550781 475.597656 111.246094 475.269531 109.953125 474.878906 C 108.664062 474.488281 107.394531 474.03125 106.148438 473.515625 C 104.902344 473 103.683594 472.425781 102.496094 471.789062 C 101.304688 471.152344 100.148438 470.460938 99.027344 469.710938 C 97.90625 468.960938 96.824219 468.160156 95.78125 467.304688 C 94.738281 466.445312 93.738281 465.542969 92.785156 464.589844 C 91.832031 463.632812 90.925781 462.636719 90.070312 461.59375 C 89.214844 460.550781 88.414062 459.46875 87.664062 458.347656 C 86.914062 457.226562 86.222656 456.070312 85.585938 454.878906 C 84.949219 453.691406 84.375 452.472656 83.859375 451.226562 C 83.339844 449.980469 82.886719 448.710938 82.496094 447.421875 C 82.105469 446.128906 81.777344 444.824219 81.515625 443.5 C 81.25 442.175781 81.054688 440.84375 80.921875 439.5 C 80.789062 438.160156 80.722656 436.8125 80.722656 435.464844 C 80.722656 434.117188 80.789062 432.769531 80.921875 431.425781 C 81.054688 430.085938 81.25 428.753906 81.515625 427.429688 C 81.777344 426.105469 82.105469 424.800781 82.496094 423.507812 C 82.886719 422.21875 83.339844 420.949219 83.859375 419.703125 C 84.375 418.457031 84.949219 417.238281 85.585938 416.046875 C 86.222656 414.859375 86.914062 413.703125 87.664062 412.582031 C 88.414062 411.460938 89.214844 410.378906 90.070312 409.335938 C 90.925781 408.292969 91.832031 407.292969 92.785156 406.339844 C 93.738281 405.386719 94.738281 404.480469 95.78125 403.625 C 96.824219 402.769531 97.90625 401.96875 99.027344 401.21875 C 100.148438 400.46875 101.304688 399.777344 102.496094 399.140625 C 103.683594 398.503906 104.902344 397.929688 106.148438 397.410156 C 107.394531 396.894531 108.664062 396.441406 109.953125 396.050781 C 111.246094 395.660156 112.550781 395.332031 113.875 395.066406 C 115.199219 394.804688 116.53125 394.605469 117.871094 394.476562 C 119.214844 394.34375 120.5625 394.277344 121.910156 394.277344 C 123.257812 394.277344 124.605469 394.34375 125.945312 394.476562 C 127.289062 394.605469 128.621094 394.804688 129.945312 395.066406 C 131.269531 395.332031 132.574219 395.660156 133.867188 396.050781 C 135.15625 396.441406 136.425781 396.894531 137.671875 397.410156 C 138.917969 397.929688 140.136719 398.503906 141.324219 399.140625 C 142.515625 399.777344 143.671875 400.46875 144.792969 401.21875 C 145.914062 401.96875 146.996094 402.769531 148.039062 403.625 C 149.082031 404.480469 150.082031 405.386719 151.035156 406.339844 C 151.988281 407.292969 152.894531 408.292969 153.75 409.335938 C 154.605469 410.378906 155.40625 411.460938 156.15625 412.582031 C 156.90625 413.703125 157.597656 414.859375 158.234375 416.046875 C 158.871094 417.238281 159.445312 418.457031 159.960938 419.703125 C 160.480469 420.949219 160.933594 422.21875 161.324219 423.507812 C 161.714844 424.800781 162.042969 426.105469 162.304688 427.429688 C 162.570312 428.753906 162.765625 430.085938 162.898438 431.425781 C 163.03125 432.769531 163.097656 434.117188 163.097656 435.464844 Z M 163.097656 435.464844 " fill-opacity="1" fill-rule="nonzero"/><g clip-path="url(#9cf136958d)"><path fill="#d4d3d6" d="M 371.972656 247.226562 L 360.355469 286.042969 L 356.421875 299.191406 L 341.882812 347.773438 L 310.332031 453.199219 L 298.765625 491.847656 L 249.542969 491.847656 L 261.105469 453.199219 L 291.925781 350.21875 L 305.046875 306.371094 L 309.523438 291.414062 L 322.75 247.226562 Z M 371.972656 247.226562 " fill-opacity="1" fill-rule="nonzero"/></g><g clip-path="url(#59df4a6c52)"><path fill="#a60c0c" d="M 440.742188 247.226562 L 428.09375 289.496094 L 424.503906 301.480469 L 411.789062 343.984375 L 379.097656 453.199219 L 367.535156 491.847656 L 318.3125 491.847656 L 329.875 453.199219 L 364.738281 336.710938 L 376.304688 298.054688 L 379.867188 286.164062 L 391.519531 247.226562 Z M 440.742188 247.226562 " fill-opacity="1" fill-rule="nonzero"/></g></svg>